<?xml version="1.0" encoding="UTF-8"?>
<svg id="logo-worldskills" data-name="Logo Worldskills" xmlns="http://www.w3.org/2000/svg" viewBox="0 0 579.36 614.82">
    <path style="fill:#fff;" d="M533.67,433.94c-7.53,8.07,3.53,23.95,2.32,38.36-1.05,12.46-3.88,24.77-8.5,36.94-9.09,23.93-23.75,43.99-42.52,61.18,0,0-17.41,16.67-44.81,32.4-2.22,1.28-10.02,5.76-10.29,5.33-.24-.38,5.71-4.49,8.3-6.35,13.43-9.62,22.05-19.95,30.6-29.63,9.36-10.6,17.72-22.05,24.64-34.75,13.84-25.4,18.39-51.63,6.48-79.06-7.42-17.1-19.86-30.23-34.29-41.62-24.55-19.37-52.69-32-81.77-42.55-53.08-19.25-108.1-30.76-163.71-39.63-22.83-3.64-45.78-6.48-68.68-9.69-1.77-.13-2.67-.34-2.69-.63-.03-.35,1.21-.83,3.72-1.42,19.23-5.05,37.59-12.22,54.72-22.43,24.6-14.67,44.55-33.72,56.58-60.18,1.32-2.9,2.94-3.67,6.01-2.93,47.78,11.48,94.56,25.99,139.72,45.55,32.11,13.91,63.05,29.89,91.45,50.51,20.17,14.65,38.4,31.24,53.05,51.55,18.57,25.76,27.24,54.47,25.03,86.17-1.08,15.52-5.67,30.33-11.96,44.51-14.49,32.66-36.15,60.25-61.15,85.41-1.97,1.68-4.95,4.1-8.73,6.81-5.93,4.25-10.96,7.13-11.04,7.01-.07-.11,4.86-3.03,10.97-8.11,3.32-2.77,5.88-5.25,7.56-6.95,14.34-17.11,23.23-33.24,29.15-44.81,10.74-20.98,18.18-42.91,18.21-66.78.03-20.18-5.79-38.62-17.3-55.23-.23.19-.63.53-1.08,1.01Z"/>
    <path style="fill:#fff;" d="M251.65,249.04c-6.45-11.34-12.55-22.42-18.99-33.31-25.35-42.92-55.91-81.71-92.28-115.85-6.09-5.72-12.54-11.06-18.88-16.51-1.51-1.3-2.79-2.53-2.84-4.74-.2-9.33-.55-18.65,2.03-27.78,2.49-8.82,7.32-15.58,15.95-19.39,13.24-5.85,26.29-12.11,38.66-19.69,4.67-2.86,9.38-5.77,12.96-9.94,2.15-2.51,3.41-2.27,5.71-.21,14.3,12.79,27.25,26.87,39.79,41.33,39.34,45.39,71.27,95.58,96.95,149.81,9.08,19.18,16.96,38.86,24.21,58.72-1.43,1.33-2.62.34-3.75-.01-27.35-8.56-55.11-15.41-83.22-20.95-4.57-.9-7-.32-8.51,4.49-1.23,3.92-3.72,7.46-5.71,11.13-.52.95-1.27,1.78-2.09,2.91Z"/>
    <path style="fill:#fff;" d="M511.47,332.28c-6.44-4.59-12.12-8.74-17.91-12.74-17.49-12.07-35.79-22.8-54.86-32.18-3.17-1.56-4.85-3.52-5.58-7.09-10.29-50.64-31.04-96.48-63.45-136.87-12.51-15.58-26.31-29.95-41.74-42.67-3.4-2.8-4.1-4.87-1.46-8.68,7.04-10.16,15.63-18.05,27.27-22.83,12.79-5.25,22.39-14.38,28.15-27.08,1.41-3.12,2.34-2.53,4.31-.79,21.48,18.88,40.17,40.23,56.65,63.56,31.15,44.07,52.19,92.49,62.45,145.51,5.17,26.74,7.21,53.74,6.16,81.87Z"/>
    <path style="fill:#fff;" d="M256.61,433.07c3.13,5.58,5.28,11.67,7.85,17.53,4.58,10.43,10.92,24.99,18.42,42.35h0c.65,1.2,1.54,2.92,2.43,5.06,1.64,3.9,2.38,6.98,2.59,7.78,1.99,7.75,19.41,61.71,19.3,74.3,0,.6-.06,2.59-.21,2.6-.18,0-.21-2.92-1.07-7.01-.26-1.25-.55-2.37-.7-2.93-.41-1.51-.8-2.74-1.13-3.71-2.75-8.23-6.24-17.75-10.55-28.22-3.81-9.28-7.96-18.43-12.53-27.4-21.71-42.57-50.14-80.1-85.09-112.58-38.21-35.51-81.81-62.71-129.89-82.84-20.36-8.53-41.17-15.68-62.45-21.49-1.22-.33-2.41-.81-3.57-1.21.04-.46-.03-.95.1-1.01,10.91-4.95,15.3-14.09,16.25-25.39.65-7.72,2.85-14.83,7.89-20.85,3.28-3.91,6.93-5.96,12.58-4.56,19.4,4.82,38.26,11.15,56.74,18.71,27.8,11.39,53.96,25.76,78.53,43.03,4.53,3.18,4.5,3.52-.74,5.77-13.03,5.58-26.5,9.92-40.12,13.82-1.63.47-3.5.43-5.15,2.31,7.6.84,14.84,1.48,22.04,2.45,21.17,2.88,42.37,5.65,63.46,9.02,5.37.86,8.35,6.35,11.96,10.07,15.55,16.03,29.23,33.16,41.09,51.37,10.92,16.77,28.49,46.58,40.83,87.81,0,0,8.56,28.6,15.98,81.23.06.44.11.89.11.89.06.59.15,1.41.15,2.43,0,.6-.02,1.37-.13,2.27-.15-.57-.47-2.04-1.01-3.86-13.22-44.88-28.64-88.82-54.63-128.26-2.46-3.74-5-7.45-8.23-10.61-.48.06-1.09.19-1.22.57-.08.24.07.5.1.56Z"/>
    <path style="fill:#fff;" d="M379.51,582.24c0-9.59.07-19.17-.01-28.76-.31-37.47-2.6-74.8-8.91-111.79-2.76-16.17-6.42-32.11-13.9-48.29.59,62.41,1.82,123.69-20.21,182.22-.44,0-.87-.01-1.31-.02-.35-3.81-.82-7.61-1.02-11.43-3.68-69.67-16.81-137.6-37.51-204.15-.39-1.25-1.67-2.77-.39-3.96,1.01-.94,2.44.03,3.67.32,27.91,6.5,55.22,14.96,82.25,24.44,3.08,1.08,4.41,2.76,4.69,5.78.99,10.71,2.24,21.4,3.02,32.13,1.66,22.79,1.64,45.64.99,68.46-.8,28.27-3.61,56.39-8.22,84.31-.59,3.59-1.12,7.19-1.68,10.79-.48-.02-.97-.03-1.45-.05Z"/>
    <path style="fill:#fff;" d="M206.41,550.82c15.05,10.92,30.57,21.09,46.91,29.99,5.91,3.22,11.87,6.36,17.81,9.53,2.16.74,5.16,1.82,5.08,2.12-.11.38-5.3-.73-7.02-1.11-42.99-9.25-102.64-45.44-102.64-45.44-24.72-13.59-48.38-28.79-69.76-47.26-15.61-13.48-30-28.17-41.41-45.52-.68-1.03-2.09-2.07-1.4-3.36.68-1.27,2.33-.59,3.55-.66,8.43-.46,16.42-1.67,23.47-7.26,5.67-4.49,12.39-7.45,19.89-7.96,2.27-.15,3.83.27,5.15,2.47,13.59,22.57,31.7,41.24,51.33,58.49,38.65,33.96,81.98,60.96,127.41,84.76,1.96,1.11,4.21,2.46,4.06,2.79-.19.42-4.17-1.02-6.09-1.72-35.97-13.12-61.78-25.05-61.78-25.05-2.06-1.04-4.15-2.02-6.24-2.99-1.46-.68-3.01-1.53-6.28-2.91-.53-.23-1.57-.65-1.99-.23-.32.32-.16.97-.05,1.32Z"/>
    <path style="fill:#fff;" d="M404.41,552.59c11.24-29.66,20.12-60,26.32-91.11,3.26-16.38,6.15-32.83,7.51-49.49.32-3.95,1.67-4.4,4.67-2.29,6.83,4.81,13.68,9.61,20.54,14.38,1.91,1.33,2.52,2.8,2.06,5.29-8.91,47.84-22.64,94.01-46.67,136.68-1.72,3.25-3.89,7.23-4.24,7.08-.34-.16,1.25-4.24,2.04-6.28,7.03-18.26,11.86-30.98,13.54-45.17.24-2.02.57-5.39.63-9.65-7.81,14.61-14.93,29.58-25.41,42.53-1.45,1.94-2.29,2.85-2.54,2.7-.29-.16.23-1.72,1.55-4.67Z"/>
    <path style="fill:#fff;" d="M427.59,578.67c11.72-25.24,22.39-50.9,30.53-77.55,6.49-21.23,11.68-42.75,13.93-64.89.09-.91-.26-2.15.78-2.58,1.35-.56,1.99.8,2.65,1.57,4.29,4.99,8.76,9.84,12.11,15.59,1.15,1.96,1.53,3.66.76,5.86-15.2,43.6-35.16,84.9-59.81,123.94-8.31,14.26-10.43,17.54-10.59,17.44-.22-.12,2.81-6.08,5.8-11.96,1.55-3.04,2.87-5.58,3.83-7.42Z"/>
</svg>